<svg width="100" height="100" viewBox="0 0 100 100" fill="none" xmlns="http://www.w3.org/2000/svg">
<rect width="100" height="100" rx="38" fill="white"/>
<g clip-path="url(#clip0_8063_16005)">
<path d="M76.5833 34.4167V65.5833C76.5833 66.5558 76.197 67.4884 75.5094 68.1761C74.8218 68.8637 73.8891 69.25 72.9167 69.25H27.0833C26.1109 69.25 25.1782 68.8637 24.4906 68.1761C23.803 67.4884 23.4167 66.5558 23.4167 65.5833V34.4167L24.3333 33.5H75.6667L76.5833 34.4167Z" fill="#E1EFFF"/>
<path d="M76.5833 30.7497V34.4163H23.4167V30.7497C23.4167 29.7772 23.803 28.8446 24.4906 28.1569C25.1782 27.4693 26.1109 27.083 27.0833 27.083H72.9167C73.8891 27.083 74.8218 27.4693 75.5094 28.1569C76.197 28.8446 76.5833 29.7772 76.5833 30.7497Z" fill="#D14A7B"/>
<path d="M33.5 25.2498C33.5 24.2373 32.6792 23.4165 31.6667 23.4165C30.6541 23.4165 29.8333 24.2373 29.8333 25.2498V28.9165C29.8333 29.929 30.6541 30.7498 31.6667 30.7498C32.6792 30.7498 33.5 29.929 33.5 28.9165V25.2498Z" fill="#E1EFFF"/>
<path d="M42.6667 25.2498C42.6667 24.2373 41.8458 23.4165 40.8333 23.4165C39.8208 23.4165 39 24.2373 39 25.2498V28.9165C39 29.929 39.8208 30.7498 40.8333 30.7498C41.8458 30.7498 42.6667 29.929 42.6667 28.9165V25.2498Z" fill="#E1EFFF"/>
<path d="M51.8333 25.2498C51.8333 24.2373 51.0125 23.4165 50 23.4165C48.9875 23.4165 48.1667 24.2373 48.1667 25.2498V28.9165C48.1667 29.929 48.9875 30.7498 50 30.7498C51.0125 30.7498 51.8333 29.929 51.8333 28.9165V25.2498Z" fill="#E1EFFF"/>
<path d="M61 25.2498C61 24.2373 60.1792 23.4165 59.1667 23.4165C58.1541 23.4165 57.3333 24.2373 57.3333 25.2498V28.9165C57.3333 29.929 58.1541 30.7498 59.1667 30.7498C60.1792 30.7498 61 29.929 61 28.9165V25.2498Z" fill="#E1EFFF"/>
<path d="M70.1667 25.2498C70.1667 24.2373 69.3459 23.4165 68.3333 23.4165C67.3208 23.4165 66.5 24.2373 66.5 25.2498V28.9165C66.5 29.929 67.3208 30.7498 68.3333 30.7498C69.3459 30.7498 70.1667 29.929 70.1667 28.9165V25.2498Z" fill="#E1EFFF"/>
<path d="M35.3333 71.0834C35.1526 71.0833 34.9759 71.0297 34.8255 70.9294C31.1478 68.4773 30.75 63.8097 30.75 61.9167C30.75 53.9243 38.2144 49.4006 38.5316 49.2127C38.7401 49.0946 38.9866 49.063 39.2182 49.1244C39.4498 49.1859 39.6481 49.3356 39.7707 49.5414C39.8933 49.7473 39.9304 49.993 39.8741 50.2259C39.8177 50.4588 39.6725 50.6604 39.4693 50.7875C39.4006 50.8251 32.5833 54.9812 32.5833 61.9167C32.5833 63.5145 32.9014 67.4433 35.8421 69.4041C36.0058 69.5132 36.13 69.6721 36.1964 69.8574C36.2628 70.0426 36.2679 70.2442 36.2108 70.4325C36.1538 70.6208 36.0377 70.7858 35.8796 70.903C35.7216 71.0202 35.5301 71.0835 35.3333 71.0834ZM68.1143 64.9509C68.0526 64.9509 67.9912 64.9444 67.9309 64.9317C67.813 64.9077 67.7009 64.8607 67.601 64.7935C67.5012 64.7262 67.4156 64.6399 67.3491 64.5396C67.2826 64.4392 67.2366 64.3267 67.2136 64.2086C67.1906 64.0904 67.191 63.9689 67.215 63.8509C67.3466 63.2145 67.4142 62.5666 67.4167 61.9167C67.4167 54.9812 60.5994 50.8251 60.5307 50.7875C60.3275 50.6604 60.1823 50.4588 60.1259 50.2259C60.0696 49.993 60.1067 49.7473 60.2293 49.5414C60.3519 49.3356 60.5502 49.1859 60.7818 49.1244C61.0134 49.063 61.2599 49.0946 61.4684 49.2127C61.7856 49.4006 69.25 53.9243 69.25 61.9167C69.2473 62.6894 69.1672 63.4599 69.0108 64.2167C68.9687 64.4236 68.8566 64.6096 68.6932 64.7434C68.5299 64.8772 68.3254 64.9505 68.1143 64.9509Z" fill="#7A93A0"/>
<path d="M50 62.8333C56.5814 62.8333 61.9167 57.4981 61.9167 50.9167C61.9167 44.3353 56.5814 39 50 39C43.4186 39 38.0833 44.3353 38.0833 50.9167C38.0833 57.4981 43.4186 62.8333 50 62.8333Z" fill="#D14A7B"/>
<path d="M56.4167 49.083H51.8333V44.4997C51.8333 44.2566 51.7368 44.0234 51.5648 43.8515C51.3929 43.6796 51.1598 43.583 50.9167 43.583H49.0833C48.8402 43.583 48.6071 43.6796 48.4351 43.8515C48.2632 44.0234 48.1667 44.2566 48.1667 44.4997V49.083H43.5833C43.3402 49.083 43.1071 49.1796 42.9351 49.3515C42.7632 49.5234 42.6667 49.7566 42.6667 49.9997V51.833C42.6667 52.0761 42.7632 52.3093 42.9351 52.4812C43.1071 52.6531 43.3402 52.7497 43.5833 52.7497H48.1667V57.333C48.1667 57.5761 48.2632 57.8093 48.4351 57.9812C48.6071 58.1531 48.8402 58.2497 49.0833 58.2497H50.9167C51.1598 58.2497 51.3929 58.1531 51.5648 57.9812C51.7368 57.8093 51.8333 57.5761 51.8333 57.333V52.7497H56.4167C56.6598 52.7497 56.8929 52.6531 57.0648 52.4812C57.2368 52.3093 57.3333 52.0761 57.3333 51.833V49.9997C57.3333 49.7566 57.2368 49.5234 57.0648 49.3515C56.8929 49.1796 56.6598 49.083 56.4167 49.083Z" fill="white"/>
<path d="M38.0833 76.5832C40.6146 76.5832 42.6667 74.5311 42.6667 71.9998C42.6667 69.4685 40.6146 67.4165 38.0833 67.4165C35.552 67.4165 33.5 69.4685 33.5 71.9998C33.5 74.5311 35.552 76.5832 38.0833 76.5832Z" fill="#6C8493"/>
<path d="M64.8152 77.4999C64.4045 77.5005 64.0058 77.3618 63.684 77.1067L62.9644 76.5402C62.8675 76.4666 62.7863 76.3744 62.7253 76.2691C62.6644 76.1638 62.6251 76.0474 62.6096 75.9267C62.5942 75.806 62.6029 75.6835 62.6353 75.5662C62.6676 75.4489 62.7231 75.3393 62.7983 75.2436C62.8735 75.148 62.9669 75.0683 63.0733 75.0091C63.1796 74.95 63.2966 74.9126 63.4176 74.8991C63.5385 74.8857 63.6609 74.8965 63.7776 74.9308C63.8943 74.9652 64.003 75.0224 64.0974 75.0992L64.817 75.6657L68.2582 71.1603C68.6325 70.6881 68.9101 70.1468 69.0751 69.5673C69.2401 68.9878 69.2891 68.3814 69.2195 67.7829C69.1499 67.1844 68.9629 66.6055 68.6693 66.0793C68.3758 65.5532 67.9813 65.09 67.5085 64.7164C67.0358 64.3429 66.494 64.0662 65.9142 63.9022C65.3344 63.7382 64.728 63.6902 64.1296 63.7608C63.5312 63.8314 62.9526 64.0194 62.4269 64.3138C61.9012 64.6083 61.4388 65.0035 61.066 65.4769L57.6257 69.9833L58.338 70.5626C58.4378 70.6352 58.5219 70.7273 58.5853 70.8332C58.6486 70.9391 58.6899 71.0568 58.7067 71.179C58.7235 71.3013 58.7154 71.4257 58.683 71.5448C58.6505 71.6639 58.5943 71.7752 58.5178 71.8721C58.4413 71.9689 58.346 72.0493 58.2376 72.1084C58.1293 72.1675 58.0101 72.2042 57.8872 72.2161C57.7644 72.228 57.6404 72.2151 57.5227 72.1779C57.405 72.1408 57.296 72.0802 57.2022 71.9999L56.4827 71.4325C56.1008 71.1317 55.8541 70.6916 55.7967 70.2089C55.7392 69.7262 55.8759 69.2405 56.1765 68.8585L59.6177 64.3513C60.1385 63.6887 60.7848 63.1352 61.5196 62.7224C62.2544 62.3096 63.0633 62.0456 63.9001 61.9454C64.7369 61.8452 65.5853 61.9108 66.3967 62.1385C67.2082 62.3662 67.9669 62.7515 68.6294 63.2723C69.292 63.7932 69.8455 64.4395 70.2583 65.1743C70.6711 65.9091 70.9351 66.718 71.0353 67.5548C71.1355 68.3916 71.0698 69.2399 70.8422 70.0514C70.6145 70.8629 70.2292 71.6215 69.7083 72.2841L66.2681 76.7904C66.1193 76.9828 65.9336 77.1435 65.7219 77.2631C65.5102 77.3827 65.2767 77.4589 65.0352 77.4871C64.9621 77.4955 64.8887 77.4998 64.8152 77.4999Z" fill="#6C8493"/>
</g>
<defs>
<clipPath id="clip0_8063_16005">
<rect width="55" height="55" fill="white" transform="translate(22.5 22.5)"/>
</clipPath>
</defs>
</svg>
