<svg width="56" height="56" viewBox="0 0 56 56" fill="none" xmlns="http://www.w3.org/2000/svg">
<path d="M49.0833 5.99984V52.7498C49.083 52.9482 49.029 53.1429 48.927 53.3131C48.8251 53.4833 48.679 53.6227 48.5042 53.7167C48.3295 53.8106 48.1326 53.8556 47.9344 53.8467C47.7362 53.8379 47.544 53.7756 47.3783 53.6665L45.7192 52.5573C45.4947 52.4095 45.2317 52.3307 44.9629 52.3307C44.6941 52.3307 44.4312 52.4095 44.2067 52.5573L41.4475 54.3998C41.2672 54.5209 41.055 54.5855 40.8379 54.5855C40.6208 54.5855 40.4086 54.5209 40.2283 54.3998L37.4692 52.5573C37.2447 52.4095 36.9817 52.3307 36.7129 52.3307C36.4441 52.3307 36.1812 52.4095 35.9567 52.5573L33.1975 54.3998C33.0172 54.5209 32.805 54.5855 32.5879 54.5855C32.3708 54.5855 32.1586 54.5209 31.9783 54.3998L29.2283 52.5573C29.0022 52.4093 28.7378 52.3304 28.4675 52.3304C28.1972 52.3304 27.9328 52.4093 27.7067 52.5573L24.9475 54.3998C24.7672 54.5209 24.555 54.5855 24.3379 54.5855C24.1208 54.5855 23.9086 54.5209 23.7283 54.3998L20.9692 52.5573C20.7447 52.4095 20.4817 52.3307 20.2129 52.3307C19.9441 52.3307 19.6812 52.4095 19.4567 52.5573L17.7883 53.6665C17.6226 53.7756 17.4305 53.8379 17.2323 53.8467C17.0341 53.8556 16.8372 53.8106 16.6624 53.7167C16.4877 53.6227 16.3416 53.4833 16.2397 53.3131C16.1377 53.1429 16.0837 52.9482 16.0833 52.7498V19.7498H7.83333C7.59022 19.7498 7.35706 19.6533 7.18515 19.4814C7.01324 19.3094 6.91666 19.0763 6.91666 18.8332V5.99984C6.91666 4.78426 7.39955 3.61847 8.25909 2.75893C9.11863 1.89939 10.2844 1.4165 11.5 1.4165H44.5C45.1019 1.4165 45.6979 1.53506 46.254 1.76539C46.81 1.99572 47.3153 2.33333 47.7409 2.75893C48.1665 3.18453 48.5041 3.6898 48.7344 4.24587C48.9648 4.80195 49.0833 5.39795 49.0833 5.99984Z" fill="#F9EAB0"/>
<path d="M32.5833 23.4163C37.6459 23.4163 41.75 19.3123 41.75 14.2497C41.75 9.18706 37.6459 5.08301 32.5833 5.08301C27.5207 5.08301 23.4167 9.18706 23.4167 14.2497C23.4167 19.3123 27.5207 23.4163 32.5833 23.4163Z" fill="#E64C3C"/>
<path d="M16.0833 5.99984V19.7498H7.83333C7.59022 19.7498 7.35706 19.6533 7.18515 19.4814C7.01324 19.3094 6.91666 19.0763 6.91666 18.8332V5.99984C6.91666 4.78426 7.39955 3.61847 8.25909 2.75893C9.11863 1.89939 10.2844 1.4165 11.5 1.4165C12.7156 1.4165 13.8814 1.89939 14.7409 2.75893C15.6004 3.61847 16.0833 4.78426 16.0833 5.99984Z" fill="#F3D55B"/>
<path d="M38.0833 13.3333V15.1667C38.0833 15.4098 37.9868 15.6429 37.8148 15.8148C37.6429 15.9868 37.4098 16.0833 37.1667 16.0833H34.4167V18.8333C34.4167 19.0764 34.3201 19.3096 34.1482 19.4815C33.9763 19.6534 33.7431 19.75 33.5 19.75H31.6667C31.4235 19.75 31.1904 19.6534 31.0185 19.4815C30.8466 19.3096 30.75 19.0764 30.75 18.8333V16.0833H28C27.7569 16.0833 27.5237 15.9868 27.3518 15.8148C27.1799 15.6429 27.0833 15.4098 27.0833 15.1667V13.3333C27.0833 13.0902 27.1799 12.8571 27.3518 12.6852C27.5237 12.5132 27.7569 12.4167 28 12.4167H30.75V9.66667C30.75 9.42355 30.8466 9.19039 31.0185 9.01849C31.1904 8.84658 31.4235 8.75 31.6667 8.75H33.5C33.7431 8.75 33.9763 8.84658 34.1482 9.01849C34.3201 9.19039 34.4167 9.42355 34.4167 9.66667V12.4167H37.1667C37.4098 12.4167 37.6429 12.5132 37.8148 12.6852C37.9868 12.8571 38.0833 13.0902 38.0833 13.3333Z" fill="white"/>
<path d="M20.6667 28.9163C21.1729 28.9163 21.5833 28.5059 21.5833 27.9997C21.5833 27.4934 21.1729 27.083 20.6667 27.083C20.1604 27.083 19.75 27.4934 19.75 27.9997C19.75 28.5059 20.1604 28.9163 20.6667 28.9163Z" fill="#4FBA6F"/>
<path d="M44.5 28.9163H24.3333C24.0902 28.9163 23.857 28.8198 23.6851 28.6479C23.5132 28.4759 23.4167 28.2428 23.4167 27.9997C23.4167 27.7566 23.5132 27.5234 23.6851 27.3515C23.857 27.1796 24.0902 27.083 24.3333 27.083H44.5C44.7431 27.083 44.9763 27.1796 45.1482 27.3515C45.3201 27.5234 45.4167 27.7566 45.4167 27.9997C45.4167 28.2428 45.3201 28.4759 45.1482 28.6479C44.9763 28.8198 44.7431 28.9163 44.5 28.9163Z" fill="#547580"/>
<path d="M20.6667 33.4998C21.1729 33.4998 21.5833 33.0894 21.5833 32.5832C21.5833 32.0769 21.1729 31.6665 20.6667 31.6665C20.1604 31.6665 19.75 32.0769 19.75 32.5832C19.75 33.0894 20.1604 33.4998 20.6667 33.4998Z" fill="#4FBA6F"/>
<path d="M44.5 33.4998H24.3333C24.0902 33.4998 23.857 33.4033 23.6851 33.2314C23.5132 33.0594 23.4167 32.8263 23.4167 32.5832C23.4167 32.3401 23.5132 32.1069 23.6851 31.935C23.857 31.7631 24.0902 31.6665 24.3333 31.6665H44.5C44.7431 31.6665 44.9763 31.7631 45.1482 31.935C45.3201 32.1069 45.4167 32.3401 45.4167 32.5832C45.4167 32.8263 45.3201 33.0594 45.1482 33.2314C44.9763 33.4033 44.7431 33.4998 44.5 33.4998Z" fill="#547580"/>
<path d="M20.6667 38.0833C21.1729 38.0833 21.5833 37.6729 21.5833 37.1667C21.5833 36.6604 21.1729 36.25 20.6667 36.25C20.1604 36.25 19.75 36.6604 19.75 37.1667C19.75 37.6729 20.1604 38.0833 20.6667 38.0833Z" fill="#4FBA6F"/>
<path d="M37.1667 38.0833H24.3333C24.0902 38.0833 23.857 37.9868 23.6851 37.8148C23.5132 37.6429 23.4167 37.4098 23.4167 37.1667C23.4167 36.9236 23.5132 36.6904 23.6851 36.5185C23.857 36.3466 24.0902 36.25 24.3333 36.25H37.1667C37.4098 36.25 37.6429 36.3466 37.8148 36.5185C37.9867 36.6904 38.0833 36.9236 38.0833 37.1667C38.0833 37.4098 37.9867 37.6429 37.8148 37.8148C37.6429 37.9868 37.4098 38.0833 37.1667 38.0833Z" fill="#547580"/>
<path d="M20.6667 42.6663C21.1729 42.6663 21.5833 42.2559 21.5833 41.7497C21.5833 41.2434 21.1729 40.833 20.6667 40.833C20.1604 40.833 19.75 41.2434 19.75 41.7497C19.75 42.2559 20.1604 42.6663 20.6667 42.6663Z" fill="#4FBA6F"/>
<path d="M37.1667 42.6663H24.3333C24.0902 42.6663 23.857 42.5698 23.6851 42.3979C23.5132 42.2259 23.4167 41.9928 23.4167 41.7497C23.4167 41.5066 23.5132 41.2734 23.6851 41.1015C23.857 40.9296 24.0902 40.833 24.3333 40.833H37.1667C37.4098 40.833 37.6429 40.9296 37.8148 41.1015C37.9867 41.2734 38.0833 41.5066 38.0833 41.7497C38.0833 41.9928 37.9867 42.2259 37.8148 42.3979C37.6429 42.5698 37.4098 42.6663 37.1667 42.6663Z" fill="#547580"/>
<path d="M20.6667 47.2498C21.1729 47.2498 21.5833 46.8394 21.5833 46.3332C21.5833 45.8269 21.1729 45.4165 20.6667 45.4165C20.1604 45.4165 19.75 45.8269 19.75 46.3332C19.75 46.8394 20.1604 47.2498 20.6667 47.2498Z" fill="#4FBA6F"/>
<path d="M37.1667 47.2498H24.3333C24.0902 47.2498 23.857 47.1533 23.6851 46.9814C23.5132 46.8094 23.4167 46.5763 23.4167 46.3332C23.4167 46.0901 23.5132 45.8569 23.6851 45.685C23.857 45.5131 24.0902 45.4165 24.3333 45.4165H37.1667C37.4098 45.4165 37.6429 45.5131 37.8148 45.685C37.9867 45.8569 38.0833 46.0901 38.0833 46.3332C38.0833 46.5763 37.9867 46.8094 37.8148 46.9814C37.6429 47.1533 37.4098 47.2498 37.1667 47.2498Z" fill="#547580"/>
<path d="M45.4167 43.5833C45.4167 42.854 45.1269 42.1545 44.6112 41.6388C44.0955 41.1231 43.396 40.8333 42.6667 40.8333C42.5058 40.8332 42.3478 40.7907 42.2085 40.7101C42.0693 40.6296 41.9537 40.5138 41.8734 40.3744C41.793 40.235 41.7508 40.077 41.7509 39.9161C41.751 39.7552 41.7934 39.5972 41.8739 39.4579C41.9544 39.3187 42.0702 39.203 42.2095 39.1226C42.3489 39.0423 42.5069 39 42.6678 39C42.8287 39 42.9867 39.0424 43.126 39.1229C43.2653 39.2033 43.381 39.319 43.4614 39.4583C43.5868 39.661 43.7862 39.8069 44.0173 39.865C44.2484 39.9232 44.4931 39.889 44.6995 39.7698C44.9059 39.6506 45.0577 39.4557 45.1228 39.2264C45.1879 38.9971 45.1611 38.7515 45.0482 38.5417C44.7158 37.984 44.197 37.5619 43.5833 37.35V37.1667C43.5833 36.9236 43.4868 36.6904 43.3148 36.5185C43.1429 36.3466 42.9098 36.25 42.6667 36.25C42.4235 36.25 42.1904 36.3466 42.0185 36.5185C41.8466 36.6904 41.75 36.9236 41.75 37.1667V37.3353C41.1389 37.5506 40.6236 37.9752 40.2956 38.5339C39.9675 39.0926 39.8478 39.7494 39.9576 40.388C40.0674 41.0266 40.3996 41.6056 40.8954 42.0227C41.3913 42.4398 42.0187 42.6679 42.6667 42.6667C42.8275 42.6668 42.9855 42.7093 43.1248 42.7899C43.264 42.8704 43.3796 42.9862 43.46 43.1256C43.5403 43.265 43.5825 43.423 43.5824 43.5839C43.5823 43.7448 43.5399 43.9028 43.4594 44.0421C43.3789 44.1813 43.2632 44.297 43.1238 44.3774C42.9845 44.4577 42.8264 44.5 42.6655 44.5C42.5047 44.5 42.3467 44.4576 42.2073 44.3771C42.068 44.2967 41.9523 44.181 41.8719 44.0417C41.8138 43.9336 41.7345 43.8383 41.6389 43.7615C41.5432 43.6846 41.4331 43.6278 41.3151 43.5942C41.197 43.5607 41.0734 43.5513 40.9517 43.5664C40.8299 43.5815 40.7124 43.6209 40.6062 43.6823C40.4999 43.7437 40.4071 43.8258 40.3331 43.9237C40.2592 44.0216 40.2057 44.1334 40.1757 44.2524C40.1458 44.3714 40.1401 44.4952 40.1589 44.6165C40.1777 44.7377 40.2206 44.854 40.2852 44.9583C40.6179 45.5163 41.1375 45.9385 41.7518 46.15V46.3333C41.7518 46.5764 41.8484 46.8096 42.0203 46.9815C42.1922 47.1534 42.4254 47.25 42.6685 47.25C42.9116 47.25 43.1448 47.1534 43.3167 46.9815C43.4886 46.8096 43.5852 46.5764 43.5852 46.3333V46.1647C44.1192 45.9755 44.5817 45.6259 44.9095 45.1639C45.2373 44.7019 45.4145 44.1499 45.4167 43.5833Z" fill="#4FBA6F"/>
</svg>
