<svg width="56" height="56" viewBox="0 0 56 56" fill="none" xmlns="http://www.w3.org/2000/svg">
<g clip-path="url(#clip0_8077_1976)">
<path d="M28 2.40332C13.4646 2.40332 1.6814 14.1865 1.6814 28.7219C1.6814 40.1508 8.96718 49.8768 19.1469 53.5126H36.853C47.0328 49.8769 54.3185 40.1509 54.3185 28.7219C54.3185 14.1865 42.5353 2.40332 28 2.40332Z" fill="#FC90CE"/>
<path d="M51.6893 0.959961H10.5004L10.5129 0.969521C10.3438 1.1414 10.0943 1.46431 10.0614 1.89808C10.0315 2.2935 10.1863 2.68645 10.5222 3.06844C10.2202 3.31519 9.60089 3.96992 9.60089 5.18884V12.6044L9.61894 12.6391C9.64354 12.6869 10.2272 13.7716 11.7471 13.6694L14.3178 30.6026C14.1385 30.8136 13.5525 31.5636 13.2321 32.698C12.8929 33.8986 12.8058 35.7653 14.2865 37.8815C14.2627 37.9122 14.2339 37.95 14.2014 37.9941H55.5V4.77075C55.5 2.66947 53.7905 0.959961 51.6893 0.959961Z" fill="#6289CC"/>
<path d="M10.7646 0.959961H4.31068C2.20951 0.959961 0.5 2.66947 0.5 4.77075V37.9942H14.402C14.4562 37.9248 14.4883 37.8876 14.4883 37.8876C11.5517 33.8121 14.4883 30.6527 14.4883 30.6527L11.8836 13.4953C10.3349 13.6734 9.76202 12.5653 9.76202 12.5653V5.18895C9.76202 3.68504 10.7646 3.09121 10.7646 3.09121C9.53676 1.86327 10.7646 0.959961 10.7646 0.959961Z" fill="#3C58A0"/>
<path d="M51.6893 3.09131H10.4955C10.1855 3.35331 9.60089 4.00407 9.60089 5.18904V12.6046L9.61894 12.6393C9.64354 12.6871 10.2272 13.7718 11.7471 13.6696L14.3178 30.6028C14.1385 30.8138 13.5525 31.5638 13.2321 32.6982C12.8929 33.8988 12.8058 35.7655 14.2865 37.8817L14.2819 37.8877H53.3688V4.77085C53.3688 3.84477 52.6154 3.09131 51.6893 3.09131Z" fill="#3C58A0"/>
<path d="M14.4883 30.6528L11.8836 13.4954C11.8681 13.4972 11.8528 13.4989 11.8374 13.5004C10.7244 13.6115 9.76201 12.7282 9.76201 11.6096V5.18904C9.76201 3.68514 10.7646 3.09131 10.7646 3.09131H4.31067C3.38319 3.09131 2.63135 3.84315 2.63135 4.77074V37.8877H14.4884C11.5517 33.8124 14.4883 30.6528 14.4883 30.6528Z" fill="#2A428C"/>
<path d="M17.9872 18.6021C17.6892 17.9895 17.5344 17.3172 17.5344 16.636V12.7465C17.5344 12.0514 17.2216 11.6691 16.8775 11.4587C16.4929 11.2237 16.0199 11.184 15.5916 11.3244C13.9287 11.8695 12.6631 12.71 11.6997 13.6708C11.6752 13.9258 11.6536 14.3877 11.7404 14.8872C11.9153 15.8921 12.447 16.5546 13.2782 16.8033C13.5446 16.8829 13.732 17.0475 13.8508 17.3065C14.4188 18.5442 13.1897 21.3271 13.1772 21.355L13.163 21.3867L13.1936 27.9329C13.1359 28.119 12.8423 29.1815 13.3731 30.0143C13.5741 30.3299 13.8667 30.5693 14.2459 30.7324C14.7529 30.5709 15.2021 30.3912 15.5982 30.2016C17.3356 29.3701 18.4399 27.6138 18.4399 25.6876V20.568C18.44 19.8869 18.2852 19.2146 17.9872 18.6021Z" fill="#FF7186"/>
<path d="M14.4883 30.6524C12.6539 30.0298 13.3551 27.9578 13.3551 27.9578L13.3246 21.4207C13.3246 21.4207 15.2048 17.2111 13.3246 16.6489C11.4684 16.094 11.873 13.5601 11.8836 13.4951C9.62678 15.6258 8.93369 18.4218 8.72261 19.8809C8.64043 20.4491 8.40529 20.9809 8.05917 21.439C6.04823 24.1003 5.94737 31.7358 7.9641 32.8637C9.46865 33.7053 11.5523 32.3768 12.6075 31.5609C13.0733 31.2007 13.603 30.9328 14.1654 30.7581C14.276 30.7239 14.3831 30.6885 14.4883 30.6524Z" fill="#FF4155"/>
<path d="M31.9279 21.4392C31.5817 20.9811 31.3467 20.4493 31.2645 19.8811C31.0338 18.2862 30.2278 15.094 27.432 12.9194C26.9851 13.2874 26.3654 13.9294 26.1784 14.7745C26.0309 15.4409 26.1804 16.1121 26.6224 16.7701L27.8388 26.4327V27.7396C27.6314 27.924 26.976 28.5822 26.8504 29.6337C26.7817 30.2074 26.8832 30.7969 27.1506 31.3961C27.2286 31.4488 27.305 31.5038 27.3796 31.5611C28.4348 32.377 30.5185 33.7055 32.023 32.8639C34.0397 31.7359 33.9389 24.1005 31.9279 21.4392Z" fill="#FF7186"/>
<path d="M28 27.814V26.4225L26.7774 16.7115C25.5857 14.9771 26.8389 13.6108 27.5624 13.0226C26.7113 12.3357 25.6713 11.7427 24.3956 11.3244C23.9673 11.184 23.4942 11.2237 23.1096 11.4587C22.7656 11.669 22.4527 12.0514 22.4527 12.7465V16.636C22.4528 17.3172 22.2979 17.9895 22 18.6021C21.702 19.2146 21.5472 19.8869 21.5472 20.5681V25.6877C21.5472 27.6138 22.6515 29.3701 24.3888 30.2017C24.8059 30.4014 25.2812 30.5905 25.8218 30.7584C26.3842 30.933 26.9139 31.2009 27.3797 31.5611L27.4283 31.5983C26.1811 29.2384 28 27.814 28 27.814Z" fill="#FF4155"/>
<path d="M28.2374 19.5145C27.8589 19.3262 27.6139 18.9329 27.6654 18.5133C27.7919 17.4832 27.0046 16.4604 25.8484 16.4604C24.2249 16.4604 23.5199 18.334 24.4059 19.4306C24.6701 19.7575 24.691 20.2206 24.4667 20.5761C24.1586 21.0644 23.9914 21.6503 24.0221 22.2772C24.0943 23.7474 25.2836 24.9538 26.7528 25.0447C28.4499 25.1499 29.8591 23.8047 29.8591 22.1303C29.8591 20.9841 29.1985 19.9924 28.2374 19.5145Z" fill="#E80054"/>
<path d="M28.4436 27.4837C29.1689 26.7584 29.1689 25.5824 28.4436 24.8571C27.7183 24.1318 26.5423 24.1318 25.8169 24.8571C25.0916 25.5824 25.0916 26.7584 25.8169 27.4837C26.5423 28.2091 27.7183 28.2091 28.4436 27.4837Z" fill="#E80054"/>
<path d="M11.7498 19.5145C12.1283 19.3262 12.3734 18.9329 12.3219 18.5133C12.1955 17.4832 12.9828 16.4604 14.139 16.4604C15.7624 16.4604 16.4674 18.334 15.5815 19.4306C15.3174 19.7575 15.2964 20.2206 15.5207 20.5761C15.8288 21.0644 15.9961 21.6503 15.9653 22.2772C15.8932 23.7474 14.7038 24.9538 13.2347 25.0447C11.5376 25.1499 10.1284 23.8047 10.1284 22.1303C10.1281 20.9841 10.7887 19.9924 11.7498 19.5145Z" fill="#E80054"/>
<path d="M13.2832 27.9681C14.2813 27.7314 14.8986 26.7305 14.6619 25.7324C14.4252 24.7343 13.4243 24.117 12.4262 24.3537C11.4281 24.5904 10.8108 25.5913 11.0475 26.5894C11.2842 27.5875 12.2852 28.2048 13.2832 27.9681Z" fill="#E80054"/>
<path d="M23.9038 18.9884L21.3536 16.922C21.2358 16.8265 21.1408 16.7059 21.0755 16.569C21.0102 16.4321 20.9763 16.2824 20.9764 16.1307V9.59247C20.9764 9.38687 21.0402 9.18437 21.1669 9.02249C21.2726 8.88759 21.3204 8.71626 21.2999 8.54612C21.2794 8.37598 21.1921 8.22096 21.0573 8.1151C20.8018 7.91304 20.4319 7.94419 20.1969 8.16988L19.9926 8.36603L19.7883 8.16988C19.5532 7.94419 19.1834 7.91304 18.9278 8.1151C18.7931 8.22096 18.7058 8.37598 18.6853 8.54612C18.6647 8.71626 18.7126 8.88759 18.8182 9.02249C18.945 9.18437 19.0088 9.38687 19.0088 9.59247V16.1307C19.0088 16.2824 18.9749 16.4321 18.9097 16.569C18.8444 16.7059 18.7494 16.8265 18.6315 16.922L16.096 18.9767C15.9046 19.1319 15.8297 19.3975 15.9311 19.6219C15.962 19.6906 16.0072 19.752 16.0637 19.802C16.1201 19.852 16.1865 19.8895 16.2585 19.9119C16.3304 19.9344 16.4064 19.9413 16.4812 19.9323C16.556 19.9233 16.6281 19.8985 16.6927 19.8595L19.5843 18.1161C19.7075 18.0417 19.8488 18.0025 19.9927 18.0025C20.1366 18.0025 20.2778 18.0417 20.4011 18.1161L23.2783 19.8508C23.5257 20 23.8545 19.9383 24.0131 19.6968C24.0861 19.5862 24.1153 19.4525 24.0952 19.3215C24.075 19.1906 24.0067 19.0719 23.9038 18.9884Z" fill="#F9A0B1"/>
<path d="M27.5161 21.369C27.387 21.369 27.2601 21.335 27.1481 21.2706C27.0361 21.2062 26.9429 21.1136 26.8779 21.002C26.8129 20.8904 26.7782 20.7636 26.7774 20.6345C26.7766 20.5053 26.8097 20.3781 26.8733 20.2657L32.4654 10.3802C32.5298 10.2663 32.6233 10.1715 32.7364 10.1056C32.8494 10.0396 32.978 10.0049 33.1089 10.0049H38.7009C38.897 10.0049 39.085 10.0828 39.2237 10.2214C39.3623 10.3601 39.4402 10.5481 39.4402 10.7442C39.4402 10.9402 39.3623 11.1283 39.2237 11.2669C39.085 11.4056 38.897 11.4834 38.7009 11.4834H33.54L28.1601 20.9936C28.0957 21.1077 28.0022 21.2026 27.889 21.2686C27.7758 21.3345 27.6471 21.3692 27.5161 21.369Z" fill="#4B6BB2"/>
<path d="M48.6832 20.9927H38.2337C38.0376 20.9927 37.8496 20.9148 37.7109 20.7761C37.5723 20.6375 37.4944 20.4495 37.4944 20.2534C37.4944 20.0573 37.5723 19.8693 37.7109 19.7307C37.8496 19.592 38.0376 19.5141 38.2337 19.5141H48.6832C48.8793 19.5141 49.0673 19.592 49.206 19.7307C49.3446 19.8693 49.4225 20.0573 49.4225 20.2534C49.4225 20.4495 49.3446 20.6375 49.206 20.7761C49.0673 20.9148 48.8793 20.9927 48.6832 20.9927ZM48.6832 23.9165H38.2337C38.0376 23.9165 37.8496 23.8386 37.7109 23.7C37.5723 23.5613 37.4944 23.3733 37.4944 23.1772C37.4944 22.9811 37.5723 22.7931 37.7109 22.6545C37.8496 22.5158 38.0376 22.4379 38.2337 22.4379H48.6832C48.8793 22.4379 49.0673 22.5158 49.206 22.6545C49.3446 22.7931 49.4225 22.9811 49.4225 23.1772C49.4225 23.3733 49.3446 23.5613 49.206 23.7C49.0673 23.8386 48.8793 23.9165 48.6832 23.9165ZM48.6832 15.1451H38.2337C38.0376 15.1451 37.8496 15.0672 37.7109 14.9285C37.5723 14.7899 37.4944 14.6019 37.4944 14.4058C37.4944 14.2097 37.5723 14.0217 37.7109 13.883C37.8496 13.7444 38.0376 13.6665 38.2337 13.6665H48.6832C48.8793 13.6665 49.0673 13.7444 49.206 13.883C49.3446 14.0217 49.4225 14.2097 49.4225 14.4058C49.4225 14.6019 49.3446 14.7899 49.206 14.9285C49.0673 15.0672 48.8793 15.1451 48.6832 15.1451ZM48.6832 18.0688H38.2337C38.0376 18.0688 37.8496 17.9909 37.7109 17.8522C37.5723 17.7136 37.4944 17.5256 37.4944 17.3295C37.4944 17.1334 37.5723 16.9454 37.7109 16.8067C37.8496 16.6681 38.0376 16.5902 38.2337 16.5902H48.6832C48.8793 16.5902 49.0673 16.6681 49.206 16.8067C49.3446 16.9454 49.4225 17.1334 49.4225 17.3295C49.4225 17.5256 49.3446 17.7136 49.206 17.8522C49.0673 17.9909 48.8793 18.0688 48.6832 18.0688ZM43.4584 26.8404H38.2338C38.0377 26.8404 37.8497 26.7625 37.711 26.6239C37.5724 26.4852 37.4945 26.2972 37.4945 26.1011C37.4945 25.9051 37.5724 25.717 37.711 25.5784C37.8497 25.4397 38.0377 25.3618 38.2338 25.3618H43.4584C43.6545 25.3618 43.8426 25.4397 43.9812 25.5784C44.1198 25.717 44.1977 25.9051 44.1977 26.1011C44.1977 26.2972 44.1198 26.4852 43.9812 26.6239C43.8426 26.7625 43.6545 26.8404 43.4584 26.8404Z" fill="#73C3F9"/>
<path d="M21.4316 53.1647H34.5684L32.8305 44.8301H23.1695L21.4316 53.1647Z" fill="#D3DCFB"/>
<path d="M34.2079 51.4359C34.0007 51.6302 33.7271 51.7381 33.443 51.7376H27.5728C26.8591 51.7376 26.3257 51.0816 26.4714 50.3829L27.1449 47.1528C27.1977 46.8997 27.336 46.6725 27.5366 46.5094C27.7372 46.3463 27.9878 46.2573 28.2463 46.2573H32.7695C32.8992 46.2573 33.0245 46.2797 33.1415 46.3208L32.8308 44.8301H23.1696L21.4317 53.1647H34.5685L34.2079 51.4359Z" fill="#BEC8F7"/>
<path d="M35.894 52.9092H27.0758C26.8816 53.1532 26.2458 54.0741 26.8424 55.0155C27.2263 55.0321 27.6121 55.0405 27.9999 55.0405C31.1062 55.0405 34.0862 54.5008 36.853 53.5125C36.6808 53.1559 36.3167 52.9092 35.894 52.9092ZM14.2818 37.8877C13.7812 38.5341 11.3304 42.0335 14.2639 45.112H51.6894C53.7906 45.112 55.5001 43.4025 55.5001 41.3013V37.8877H14.2818Z" fill="#DEEEFF"/>
<path d="M0.5 37.8877V41.3013C0.5 43.4025 2.20951 45.112 4.31068 45.112H14.4883C11.1391 41.7628 14.4883 37.8877 14.4883 37.8877H0.5Z" fill="#BEC8F7"/>
<path d="M20.106 52.9093C19.6834 52.9093 19.3192 53.1559 19.1469 53.5126C21.585 54.3833 24.1885 54.9053 26.8982 55.0172C26.1639 53.9603 27.1286 52.9092 27.1286 52.9092H20.106V52.9093Z" fill="#D3DCFB"/>
<path d="M33.2089 24.8267C32.2708 25.1443 31.1447 25.8139 31.4255 27.1748C31.8509 29.2361 29.2276 31.1779 31.2852 33.1092C31.5411 33.0732 31.7891 32.9949 32.0231 32.8641C33.4407 32.0712 33.812 28.0626 33.2089 24.8267Z" fill="#F9A0B1"/>
</g>
<defs>
<clipPath id="clip0_8077_1976">
<rect width="55" height="55" fill="white" transform="translate(0.5 0.5)"/>
</clipPath>
</defs>
</svg>
