<svg width="56" height="56" viewBox="0 0 56 56" fill="none" xmlns="http://www.w3.org/2000/svg">
<path d="M21.5833 37.1663V42.6663C21.5833 44.8544 22.4525 46.9528 23.9997 48.5C25.5469 50.0471 27.6453 50.9163 29.8333 50.9163H38.0833C40.2714 50.9163 42.3698 50.0471 43.917 48.5C45.4641 46.9528 46.3333 44.8544 46.3333 42.6663V29.833H50V42.6663C50 45.8268 48.7445 48.8579 46.5097 51.0927C44.2749 53.3275 41.2438 54.583 38.0833 54.583H29.8333C26.6728 54.583 23.6418 53.3275 21.407 51.0927C19.1722 48.8579 17.9167 45.8268 17.9167 42.6663V37.1663H21.5833Z" fill="#2B626B"/>
<path d="M23.4167 2.33301H26.1667C29.084 2.33301 31.8819 3.49193 33.9448 5.55483C36.0077 7.61773 37.1667 10.4156 37.1667 13.333V18.833H33.5V13.333C33.5 11.3881 32.7274 9.52282 31.3521 8.14756C29.9768 6.77229 28.1116 5.99967 26.1667 5.99967H23.4167V2.33301Z" fill="#B6D5E0"/>
<path d="M21.5833 5.08317C21.5833 6.09569 22.4041 6.9165 23.4167 6.9165C24.4292 6.9165 25.25 6.09569 25.25 5.08317V3.24984C25.25 2.23731 24.4292 1.4165 23.4167 1.4165C22.4041 1.4165 21.5833 2.23731 21.5833 3.24984V5.08317Z" fill="#42AAC6"/>
<path d="M16.0833 2.33301H13.3333C10.4159 2.33301 7.61804 3.49193 5.55514 5.55483C3.49224 7.61773 2.33331 10.4156 2.33331 13.333V18.833H5.99998V13.333C5.99998 11.3881 6.7726 9.52282 8.14786 8.14756C9.52313 6.77229 11.3884 5.99967 13.3333 5.99967H16.0833V2.33301Z" fill="#B6D5E0"/>
<path d="M17.9167 3.24984C17.9167 2.23732 17.0959 1.4165 16.0833 1.4165C15.0708 1.4165 14.25 2.23732 14.25 3.24984V5.08317C14.25 6.09569 15.0708 6.9165 16.0833 6.9165C17.0959 6.9165 17.9167 6.09569 17.9167 5.08317V3.24984Z" fill="#42AAC6"/>
<path d="M38.0833 17.9167V20.6667C38.0833 23.0742 37.6091 25.4582 36.6878 27.6825C35.7664 29.9068 34.416 31.9279 32.7136 33.6303C31.0112 35.3327 28.9902 36.6831 26.7659 37.6045C24.5416 38.5258 22.1576 39 19.75 39C14.8877 39 10.2245 37.0685 6.78637 33.6303C3.3482 30.1921 1.41666 25.529 1.41666 20.6667V17.9167C1.41666 17.6736 1.51323 17.4404 1.68514 17.2685C1.85705 17.0966 2.09021 17 2.33332 17H5.99999C6.2431 17 6.47626 17.0966 6.64817 17.2685C6.82008 17.4404 6.91666 17.6736 6.91666 17.9167V20.6667C6.91666 24.0703 8.26874 27.3345 10.6755 29.7412C13.0822 32.1479 16.3464 33.5 19.75 33.5C23.1536 33.5 26.4178 32.1479 28.8245 29.7412C31.2312 27.3345 32.5833 24.0703 32.5833 20.6667V17.9167C32.5833 17.6736 32.6799 17.4404 32.8518 17.2685C33.0237 17.0966 33.2569 17 33.5 17H37.1667C37.4098 17 37.6429 17.0966 37.8148 17.2685C37.9867 17.4404 38.0833 17.6736 38.0833 17.9167Z" fill="#42AAC6"/>
<path d="M48.1667 30.7498C51.7105 30.7498 54.5833 27.877 54.5833 24.3332C54.5833 20.7893 51.7105 17.9165 48.1667 17.9165C44.6228 17.9165 41.75 20.7893 41.75 24.3332C41.75 27.877 44.6228 30.7498 48.1667 30.7498Z" fill="#B6D5E0"/>
<path d="M48.1667 27.083C49.6854 27.083 50.9167 25.8518 50.9167 24.333C50.9167 22.8142 49.6854 21.583 48.1667 21.583C46.6479 21.583 45.4167 22.8142 45.4167 24.333C45.4167 25.8518 46.6479 27.083 48.1667 27.083Z" fill="#9BC1CE"/>
<path d="M26.4591 26.1664H13.0409C12.6002 26.1568 12.1698 26.0316 11.7927 25.8034C11.4155 25.5753 11.1049 25.2521 10.8919 24.8662C10.6789 24.4803 10.571 24.0452 10.5789 23.6045C10.5869 23.1638 10.7104 22.7328 10.9372 22.3549L17.6417 10.8883C17.8536 10.5171 18.1599 10.2087 18.5295 9.99409C18.8991 9.77952 19.3189 9.6665 19.7463 9.6665C20.1737 9.6665 20.5935 9.77952 20.9631 9.99409C21.3327 10.2087 21.639 10.5171 21.851 10.8883L28.5592 22.3549C28.7858 22.7326 28.9093 23.1632 28.9174 23.6036C28.9255 24.044 28.8179 24.4788 28.6053 24.8646C28.3928 25.2504 28.0827 25.5737 27.706 25.8021C27.3294 26.0305 26.8994 26.1561 26.4591 26.1664Z" fill="#F2BB30"/>
<path d="M19.75 19.7497C19.5069 19.7497 19.2737 19.6531 19.1018 19.4812C18.9299 19.3093 18.8333 19.0761 18.8333 18.833V14.2497C18.8333 14.0066 18.9299 13.7734 19.1018 13.6015C19.2737 13.4296 19.5069 13.333 19.75 13.333C19.9931 13.333 20.2263 13.4296 20.3982 13.6015C20.5701 13.7734 20.6666 14.0066 20.6666 14.2497V18.833C20.6666 19.0761 20.5701 19.3093 20.3982 19.4812C20.2263 19.6531 19.9931 19.7497 19.75 19.7497ZM19.75 23.4053C19.6302 23.4067 19.5113 23.3842 19.4002 23.3393C19.2891 23.2944 19.188 23.2279 19.1027 23.1437C19.0175 23.0595 18.9498 22.9592 18.9035 22.8487C18.8573 22.7381 18.8334 22.6195 18.8333 22.4997V22.4786C18.8333 22.2355 18.9299 22.0023 19.1018 21.8304C19.2737 21.6585 19.5069 21.5619 19.75 21.5619C19.9931 21.5619 20.2263 21.6585 20.3982 21.8304C20.5701 22.0023 20.6666 22.2355 20.6666 22.4786C20.6671 22.7228 20.571 22.9573 20.3993 23.1309C20.2276 23.3045 19.9942 23.4032 19.75 23.4053Z" fill="white"/>
</svg>
