<svg width="56" height="56" viewBox="0 0 56 56" fill="none" xmlns="http://www.w3.org/2000/svg">
<path d="M47.1242 35.0728H43.168C45.6407 35.0728 47.1748 33.154 47.8535 30.9711L51.1523 30.2703C51.3449 30.2293 51.5176 30.1235 51.6416 29.9705C51.7655 29.8175 51.8331 29.6266 51.8332 29.4297V21.7654C51.8331 21.5685 51.7655 21.3776 51.6415 21.2246C51.5176 21.0716 51.3448 20.9658 51.1522 20.9249L46.8477 20.0109L45.3178 16.3156L47.7148 12.6235C47.822 12.4584 47.8693 12.2614 47.8486 12.0656C47.828 11.8698 47.7407 11.687 47.6015 11.5478L42.1811 6.13084C42.0419 5.99165 41.8591 5.90448 41.6633 5.88391C41.4675 5.86334 41.2706 5.91062 41.1055 6.01783L37.4137 8.41474L33.7211 6.88505L32.8043 2.57743C32.7635 2.38482 32.6577 2.21209 32.5047 2.08814C32.3517 1.96418 32.1608 1.89653 31.9639 1.89648H24.2995C24.1026 1.89648 23.9116 1.96413 23.7586 2.08811C23.6055 2.21209 23.4997 2.38487 23.4589 2.57754L22.545 6.88516L18.8497 8.41495L15.1577 6.01783C14.9926 5.9106 14.7956 5.86333 14.5998 5.88392C14.404 5.90451 14.2212 5.99172 14.082 6.13095L8.66503 11.5479C8.52583 11.6871 8.43864 11.8699 8.41805 12.0657C8.39746 12.2615 8.44472 12.4584 8.55192 12.6235L10.9488 16.3156L9.41913 20.0109L5.11152 20.9248C4.91885 20.9656 4.74607 21.0714 4.62209 21.2245C4.49811 21.3775 4.43046 21.5685 4.43046 21.7654V29.4297C4.43048 29.6266 4.49812 29.8175 4.62208 29.9706C4.74603 30.1236 4.91878 30.2294 5.11141 30.2703L8.12696 30.9103C8.79544 33.1184 10.3346 35.0727 12.832 35.0728H8.87279C5.86809 35.0728 3.4092 37.3567 3.4092 40.1478V47.0737H14.2534V54.1035H41.7466V47.0737H52.5908V40.1478C52.5908 37.3564 50.1319 35.0728 47.1242 35.0728ZM38.5252 26.1939C38.2237 26.8554 38.068 27.574 38.0686 28.301C38.0686 28.4831 38.0752 28.67 38.088 28.8602C37.4367 31.0302 36.1031 32.9324 34.2851 34.2844C32.467 35.6364 30.2615 36.366 27.9959 36.3652C25.7302 36.3643 23.5253 35.6328 21.7083 34.2794C19.8913 32.926 18.5592 31.0228 17.9097 28.8523C17.9221 28.6648 17.9285 28.4805 17.9285 28.301C17.929 27.5763 17.7744 26.86 17.475 26.2C17.4708 26.0781 17.4679 25.956 17.4679 25.8332C17.4679 24.4501 17.7404 23.0806 18.2696 21.8027C18.7989 20.5249 19.5747 19.3639 20.5527 18.3859C21.5307 17.4079 22.6917 16.6321 23.9696 16.1028C25.2474 15.5735 26.6169 15.3011 28 15.3011C29.3831 15.3011 30.7526 15.5735 32.0305 16.1028C33.3083 16.6321 34.4693 17.4079 35.4473 18.3859C36.4253 19.3639 37.2011 20.5249 37.7304 21.8027C38.2597 23.0806 38.5321 24.4501 38.5321 25.8332C38.5321 25.9539 38.5293 26.0741 38.5252 26.1939Z" fill="#484868"/>
<path d="M52.5908 40.1478C52.5908 37.3567 50.1319 35.0728 47.1242 35.0728H39.2072C37.8721 35.067 36.5776 35.5309 35.55 36.3834L35.5483 36.3879C34.9649 36.263 34.3699 36.1998 33.7733 36.1994H22.2234C21.6296 36.1998 21.0375 36.2624 20.4568 36.3863L20.4496 36.3834C19.4221 35.5309 18.1275 35.067 16.7925 35.0728H8.87279C5.86809 35.0728 3.4092 37.3567 3.4092 40.1478V47.0738H14.2534V54.1036H41.7466V47.0738H52.5908V40.1478Z" fill="#EAE8E8"/>
<path d="M33.7736 36.1997H31.6485C36.0325 36.1997 39.6214 39.5277 39.6214 43.6003V54.1034H41.7466V43.6003C41.7466 39.5277 38.1576 36.1997 33.7736 36.1997Z" fill="#DDD7D7"/>
<path d="M21.3809 54.1038V45.152C21.3821 45.0449 21.3621 44.9386 21.322 44.8393C21.2818 44.74 21.2224 44.6496 21.1471 44.5735C21.0718 44.4973 20.9821 44.4368 20.8833 44.3955C20.7844 44.3543 20.6784 44.333 20.5713 44.333C20.4642 44.333 20.3581 44.3543 20.2593 44.3955C20.1605 44.4368 20.0708 44.4973 19.9955 44.5735C19.9202 44.6496 19.8608 44.74 19.8206 44.8393C19.7805 44.9386 19.7605 45.0449 19.7617 45.152V54.1038H21.3809Z" fill="#DDD7D7"/>
<path d="M36.2353 54.1038V45.152C36.2365 45.0449 36.2165 44.9386 36.1764 44.8393C36.1362 44.74 36.0768 44.6496 36.0015 44.5735C35.9262 44.4973 35.8365 44.4368 35.7377 44.3955C35.6389 44.3543 35.5328 44.333 35.4257 44.333C35.3186 44.333 35.2125 44.3543 35.1137 44.3955C35.0149 44.4368 34.9252 44.4973 34.8499 44.5735C34.7746 44.6496 34.7152 44.74 34.675 44.8393C34.6349 44.9386 34.6149 45.0449 34.6161 45.152V54.1038H36.2353Z" fill="#DDD7D7"/>
<path d="M43.168 23.2051C44.5192 23.2055 45.815 23.7425 46.7705 24.6981C47.7259 25.6536 48.2628 26.9494 48.2632 28.3006C48.2632 31.2876 46.6411 35.0724 43.1674 35.0724C39.5843 35.0724 38.0685 31.1155 38.0685 28.3006C38.0691 26.9487 38.6067 25.6524 39.563 24.6968C40.5193 23.7412 41.816 23.2046 43.168 23.2051Z" fill="#FFDDAB"/>
<path d="M12.8326 23.2053C12.1634 23.2052 11.5007 23.3369 10.8824 23.593C10.2642 23.849 9.70237 24.2243 9.22917 24.6975C8.75596 25.1707 8.38061 25.7325 8.12455 26.3507C7.86848 26.969 7.73672 27.6317 7.73679 28.3008C7.73679 31.2878 9.35629 35.0726 12.8326 35.0726C16.4157 35.0726 17.9284 31.1157 17.9284 28.3008C17.9285 27.6316 17.7968 26.9689 17.5407 26.3507C17.2846 25.7324 16.9093 25.1706 16.4361 24.6974C15.9629 24.2242 15.4011 23.8488 14.7828 23.5928C14.1645 23.3367 13.5018 23.205 12.8326 23.2051V23.2053Z" fill="#FFDDAB"/>
<path d="M43.168 23.2051C42.8624 23.2054 42.5574 23.2331 42.2567 23.2878C43.4307 23.5014 44.4925 24.1201 45.2572 25.0361C46.0219 25.9521 46.4411 27.1074 46.4417 28.3006C46.4417 31.0141 45.1023 34.3854 42.2531 34.98C42.5539 35.0421 42.8603 35.0731 43.1674 35.0724C46.6407 35.0724 48.2632 31.2876 48.2632 28.3006C48.2628 26.9494 47.7259 25.6536 46.7705 24.6981C45.815 23.7425 44.5192 23.2055 43.168 23.2051Z" fill="#F9CE95"/>
<path d="M12.8326 23.2051C12.5271 23.2054 12.2223 23.2331 11.9218 23.2878C13.096 23.501 14.1581 24.1196 14.9229 25.0357C15.6877 25.9518 16.1067 27.1073 16.1069 28.3006C16.1069 30.8632 14.853 34.3715 11.9251 34.9801C12.2236 35.042 12.5277 35.0729 12.8326 35.0724C16.4157 35.0724 17.9284 31.1155 17.9284 28.3006C17.9285 27.6314 17.7967 26.9688 17.5407 26.3505C17.2846 25.7322 16.9092 25.1705 16.436 24.6973C15.9628 24.2241 15.401 23.8488 14.7827 23.5927C14.1644 23.3367 13.5018 23.205 12.8326 23.2051Z" fill="#F9CE95"/>
<path d="M27.9985 54.1037L25.2133 51.2591L26.9248 39.2042C26.5989 39.0116 26.3408 38.7226 26.1862 38.3771C26.0201 38.0152 26.0498 37.0542 26.2663 36.7189C26.3703 36.5576 26.5135 36.4253 26.6826 36.3345C26.8518 36.2437 27.0412 36.1973 27.2331 36.1999H28.7638C28.9558 36.1967 29.1455 36.2427 29.3147 36.3336C29.484 36.4244 29.6271 36.5571 29.7306 36.7189C29.95 37.0542 29.9797 38.0152 29.8136 38.3771C29.657 38.7222 29.3983 39.0109 29.0724 39.2042L30.7868 51.2587L27.9985 54.1037Z" fill="#AD1E1E"/>
<path d="M27.9985 36.1996C30.5909 36.1996 32.8333 33.9721 33.9189 30.733C35.7313 30.5462 36.894 26.186 35.4288 25.7321C35.2926 25.6857 35.1477 25.6707 35.0049 25.6881C34.8621 25.7056 34.7251 25.7551 34.6041 25.833C35.8529 20.5621 34.8325 19.6189 33.1861 18.9219C31.7654 17.3469 29.7335 16.4512 27.9983 16.4512C24.4567 16.4512 19.6753 20.1796 21.3927 25.8331C21.2718 25.7551 21.1348 25.7055 20.992 25.688C20.8492 25.6705 20.7043 25.6856 20.5681 25.7322C19.1058 26.1861 20.2655 30.5463 22.0808 30.7331C23.1634 33.9722 25.4089 36.1997 27.9983 36.1997L27.9985 36.1996Z" fill="#FFDDAB"/>
<path d="M47.1242 35.0728H39.2072C37.8721 35.067 36.5776 35.5309 35.55 36.3834L35.5483 36.3879C39.0855 37.142 41.7466 40.0939 41.7466 43.6001V47.0733H52.5908V40.1478C52.5908 37.3565 50.1319 35.0728 47.1242 35.0728Z" fill="#7DA8FF"/>
<path d="M14.2534 43.6006C14.2534 40.0943 16.9161 37.1385 20.4568 36.3867L20.4496 36.3838C19.4221 35.5314 18.1275 35.0675 16.7925 35.0733H8.87279C5.86809 35.0733 3.4092 37.3572 3.4092 40.1483V47.0743H14.2534V43.6006Z" fill="#7DA8FF"/>
<path d="M14.2534 47.0736V43.6003C14.2534 40.0941 16.9161 37.1383 20.4568 36.3865L20.4496 36.3836C20.3744 36.3201 20.2956 36.2593 20.216 36.1997H20.0978C15.7139 36.1997 12.1278 39.5308 12.1278 43.6003V47.0736H14.2534Z" fill="#5090EF"/>
<path d="M41.7466 47.0736V43.6003C41.7466 40.0941 39.0838 37.1383 35.5432 36.3865L35.5504 36.3836C35.6261 36.3201 35.7044 36.2593 35.7839 36.1997H35.9021C40.2859 36.1997 43.872 39.5308 43.872 43.6003V47.0736H41.7466Z" fill="#5090EF"/>
<path d="M29.8138 38.3771C29.9799 38.0152 29.9502 37.0542 29.7308 36.7189C29.6273 36.5571 29.4842 36.4244 29.3149 36.3336C29.1457 36.2427 28.956 36.1967 28.764 36.1999H27.2332C27.0413 36.1973 26.8519 36.2437 26.6827 36.3345C26.5136 36.4253 26.3704 36.5576 26.2664 36.7189C26.0499 37.0542 26.0202 38.0152 26.1863 38.3771C26.3409 38.7226 26.599 39.0116 26.9249 39.2042H29.0724C29.3984 39.0109 29.6572 38.7222 29.8138 38.3771Z" fill="#D22E2E"/>
<path d="M33.1863 18.9219C31.7656 17.3469 29.7337 16.4512 27.9985 16.4512C24.4569 16.4512 19.6756 20.1796 21.3929 25.8331C24.0802 22.3484 29.9121 24.4031 32.3076 21.8767C32.7737 23.9095 33.6086 24.9528 34.6042 25.8333C35.8525 20.5621 34.8326 19.6188 33.1863 18.9219Z" fill="#7C6359"/>
<path d="M35.4288 25.7323C35.2644 25.6801 35.0897 25.6695 34.9202 25.7014C34.8172 25.7492 34.7121 25.7937 34.6041 25.8331C34.1383 25.4331 33.7258 24.9749 33.3768 24.4697C33.426 26.4608 33.1267 28.709 32.2998 30.7332C31.3291 33.6295 29.4331 35.7156 27.1893 36.125C27.4562 36.1744 27.727 36.1996 27.9985 36.2002C30.5909 36.2002 32.8333 33.9727 33.9189 30.7336C35.7313 30.5464 36.8945 26.1861 35.4288 25.7323Z" fill="#F9CE95"/>
<path d="M34.6041 25.8334C34.7121 25.7939 34.8172 25.7495 34.9202 25.7017C34.8069 25.7232 34.6992 25.7681 34.6041 25.8334Z" fill="#604C42"/>
<path d="M33.1863 18.9219C31.7656 17.3469 29.7337 16.4512 27.9985 16.4512C27.7252 16.4519 27.4523 16.4729 27.1821 16.514C28.714 16.7396 30.3607 17.5845 31.5672 18.922C32.5333 19.331 33.3069 21.6408 33.3768 24.4697C33.7258 24.9748 34.1383 25.433 34.6041 25.8331C35.8525 20.5621 34.8326 19.6188 33.1863 18.9219Z" fill="#604C42"/>
<path d="M30.6811 2.577L31.5979 6.88462L36.5867 8.9512L37.4138 8.41409L33.7212 6.8844L32.8044 2.57679C32.7634 2.38428 32.6576 2.21168 32.5046 2.08785C32.3516 1.96402 32.1607 1.89647 31.9639 1.89648H29.8406C30.0374 1.89648 30.2283 1.96406 30.3813 2.08793C30.5343 2.2118 30.6402 2.38445 30.6811 2.577Z" fill="#3D3D54"/>
<path d="M51.1518 20.9251L46.8473 20.0111L45.3174 16.3158L47.7144 12.6237C47.8216 12.4586 47.8688 12.2616 47.8482 12.0658C47.8276 11.87 47.7403 11.6872 47.6011 11.548L42.1811 6.13103C42.0419 5.99184 41.8591 5.90467 41.6633 5.8841C41.4675 5.86353 41.2706 5.91081 41.1055 6.01802L40.4019 6.47488L45.4775 11.548C45.6168 11.6872 45.7041 11.87 45.7247 12.0658C45.7453 12.2616 45.6981 12.4586 45.5909 12.6237L43.194 16.3158L44.7238 20.0111L49.0283 20.9251C49.2209 20.9659 49.3936 21.0717 49.5176 21.2248C49.6416 21.3778 49.7092 21.5687 49.7092 21.7656V29.4299C49.7092 29.6268 49.6416 29.8177 49.5176 29.9707C49.3937 30.1237 49.221 30.2295 49.0284 30.2704L47.9869 30.4917C47.9459 30.6548 47.901 30.8171 47.8505 30.978L47.8527 30.9713L51.1516 30.2704C51.3442 30.2295 51.5169 30.1237 51.6408 29.9707C51.7648 29.8177 51.8324 29.6268 51.8324 29.4299V21.7656C51.8324 21.5688 51.7648 21.3779 51.6409 21.2248C51.517 21.0718 51.3444 20.966 51.1518 20.9251Z" fill="#3D3D54"/>
<path d="M38.5321 25.8331C38.5321 25.955 38.528 26.076 38.5238 26.1969C38.8843 25.4044 39.4412 24.717 40.1417 24.1998C39.7462 21.26 38.2976 18.5635 36.0646 16.6108C33.8316 14.6581 30.966 13.5819 27.9996 13.582C25.0333 13.5821 22.1677 14.6585 19.9349 16.6113C17.702 18.5641 16.2535 21.2607 15.8582 24.2006C16.5595 24.719 17.1166 25.4082 17.4763 26.2026C17.472 26.0797 17.4679 25.9569 17.4679 25.8331C17.4679 24.45 17.7404 23.0805 18.2696 21.8026C18.7989 20.5248 19.5747 19.3638 20.5527 18.3858C21.5307 17.4078 22.6917 16.632 23.9696 16.1027C25.2474 15.5734 26.6169 15.301 28 15.301C29.3831 15.301 30.7526 15.5734 32.0305 16.1027C33.3083 16.632 34.4693 17.4078 35.4473 18.3858C36.4253 19.3638 37.2011 20.5248 37.7304 21.8026C38.2597 23.0805 38.5321 24.45 38.5321 25.8331Z" fill="#3D3D54"/>
<path d="M17.9101 28.8477C17.8449 29.8286 17.6225 30.7926 17.2513 31.7029C18.2662 33.5523 19.7382 35.1106 21.5267 36.2293C21.7564 36.2101 21.9886 36.1999 22.2238 36.1999H26.1354C24.2201 35.8512 22.4383 34.9801 20.9868 33.6827C19.5354 32.3853 18.4706 30.712 17.9101 28.8477Z" fill="#3D3D54"/>
<path d="M38.0877 28.855C37.5262 30.7176 36.4613 32.3889 35.0104 33.6849C33.5596 34.9809 31.7791 35.8511 29.8652 36.1996H33.7736C34.0095 36.1996 34.2428 36.2094 34.4735 36.2291C36.2612 35.1108 37.7328 33.5532 38.7477 31.7048C38.3764 30.7963 38.1536 29.8341 38.0877 28.855Z" fill="#3D3D54"/>
</svg>
