<svg width="56" height="56" viewBox="0 0 56 56" fill="none" xmlns="http://www.w3.org/2000/svg">
<path d="M36.25 53.6667V8.75H3.25V52.75C3.25 53.7583 4.075 54.5833 5.08333 54.5833H34.4167C34.6367 54.5833 34.8567 54.5467 35.0492 54.4642L36.25 53.6667Z" fill="#477FFC"/>
<path d="M36.25 1.4165H3.24999C2.23747 1.4165 1.41666 2.23732 1.41666 3.24984V8.74984C1.41666 9.76236 2.23747 10.5832 3.24999 10.5832H36.25C37.2625 10.5832 38.0833 9.76236 38.0833 8.74984V3.24984C38.0833 2.23732 37.2625 1.4165 36.25 1.4165Z" fill="#313851"/>
<path d="M42.6666 41.7497V48.1663C42.6666 49.9447 41.9516 51.5397 40.7875 52.7038C39.6233 53.868 38.0283 54.583 36.25 54.583C32.7025 54.583 29.8333 51.7138 29.8333 48.1663V41.7497L30.75 40.833H41.75L42.6666 41.7497Z" fill="#E1EBF0"/>
<path d="M30.75 22.5H8.74999C7.73747 22.5 6.91666 23.3208 6.91666 24.3333V39C6.91666 40.0125 7.73747 40.8333 8.74999 40.8333H30.75C31.7625 40.8333 32.5833 40.0125 32.5833 39V24.3333C32.5833 23.3208 31.7625 22.5 30.75 22.5Z" fill="white"/>
<path d="M42.6666 35.3332V41.7498H29.8333V35.3332C29.8333 31.7857 32.7025 28.9165 36.25 28.9165C38.0283 28.9165 39.6233 29.6315 40.7875 30.7957C41.9516 31.9598 42.6666 33.5548 42.6666 35.3332Z" fill="#F9415B"/>
<path d="M54.5833 46.3333C54.5833 48.5214 53.7141 50.6198 52.1669 52.167C50.6198 53.7141 48.5214 54.5833 46.3333 54.5833C43.0241 54.5833 40.1641 52.6308 38.8533 49.8075C38.5966 49.2575 38.395 48.68 38.2666 48.0658C38.0082 46.8627 38.0222 45.6171 38.3076 44.4201C38.593 43.2231 39.1425 42.1051 39.9159 41.148C40.6893 40.1909 41.667 39.419 42.7774 38.8887C43.8878 38.3584 45.1028 38.0832 46.3333 38.0833C49.6425 38.0833 52.5025 40.0358 53.8133 42.8592C54.07 43.4092 54.2716 43.9867 54.4 44.6008C54.5191 45.16 54.5833 45.7375 54.5833 46.3333ZM25.25 29.8333H14.25C14.0069 29.8333 13.7737 29.7368 13.6018 29.5648C13.4299 29.3929 13.3333 29.1598 13.3333 28.9167C13.3333 28.6736 13.4299 28.4404 13.6018 28.2685C13.7737 28.0966 14.0069 28 14.25 28H25.25C25.4931 28 25.7263 28.0966 25.8982 28.2685C26.0701 28.4404 26.1666 28.6736 26.1666 28.9167C26.1666 29.1598 26.0701 29.3929 25.8982 29.5648C25.7263 29.7368 25.4931 29.8333 25.25 29.8333ZM23.4166 35.3333H16.0833C15.8402 35.3333 15.607 35.2368 15.4351 35.0648C15.2632 34.8929 15.1666 34.6598 15.1666 34.4167C15.1666 34.1736 15.2632 33.9404 15.4351 33.7685C15.607 33.5966 15.8402 33.5 16.0833 33.5H23.4166C23.6598 33.5 23.8929 33.5966 24.0648 33.7685C24.2367 33.9404 24.3333 34.1736 24.3333 34.4167C24.3333 34.6598 24.2367 34.8929 24.0648 35.0648C23.8929 35.2368 23.6598 35.3333 23.4166 35.3333Z" fill="#BCCDD3"/>
<path d="M5.08331 1.4165H6.91665V10.5832H5.08331V1.4165ZM10.5833 1.4165H12.4166V10.5832H10.5833V1.4165ZM16.0833 1.4165H17.9166V10.5832H16.0833V1.4165ZM21.5833 1.4165H23.4166V10.5832H21.5833V1.4165ZM27.0833 1.4165H28.9166V10.5832H27.0833V1.4165ZM32.5833 1.4165H34.4166V10.5832H32.5833V1.4165Z" fill="#282F42"/>
<path d="M54.4 44.6006L38.8533 49.8072C38.5967 49.2572 38.395 48.6797 38.2667 48.0656L53.8133 42.8589C54.07 43.4089 54.2717 43.9864 54.4 44.6006Z" fill="#A5B9C8"/>
</svg>
