<svg width="56" height="56" viewBox="0 0 56 56" fill="none" xmlns="http://www.w3.org/2000/svg">
<g clip-path="url(#clip0_8063_16060)">
<path d="M8.08623 35.5479H27.0516V39.3407H8.08634C7.03897 39.3407 6.1897 38.4914 6.1897 37.4441C6.1897 36.3967 7.03887 35.5479 8.08623 35.5479Z" fill="#CAD0D7"/>
<path d="M28 33.6508H32.7413V41.2372H28C26.9527 41.2372 26.1034 40.3878 26.1034 39.3404V35.5476C26.1034 34.4998 26.9527 33.6508 28 33.6508ZM19.3719 20.0742L24.1908 23.0988L20.6332 28.767C20.567 28.8725 20.4807 28.9639 20.3792 29.036C20.2777 29.108 20.1629 29.1594 20.0416 29.1872C19.9202 29.2149 19.7945 29.2184 19.6718 29.1976C19.549 29.1767 19.4315 29.1319 19.3261 29.0656L16.1136 27.0494C15.6699 26.7712 15.5356 26.1859 15.8143 25.7423L19.3719 20.0742Z" fill="#A9B0BB"/>
<path d="M46.0171 27.7148C46.0507 31.0189 45.1536 34.2657 43.4285 37.084C43.4285 37.084 35.5862 32.7027 37.9852 29.3836C38.2825 28.3024 38.4324 27.186 38.4309 26.0648C38.4309 21.6458 36.1931 18.014 33.3291 17.5872C32.9846 15.8857 33.8523 14.1704 35.4268 13.4394L36.1553 13.1021C41.7214 14.0499 46.0171 20.233 46.0171 27.7148Z" fill="#EB5463"/>
<path d="M48.8621 45.9784L31.793 47.8751V33.1579C31.7959 30.8126 33.6963 28.9121 36.0415 28.9097H36.0507C36.7768 28.9142 37.49 29.1027 38.1235 29.4576C38.757 29.8124 39.2902 30.3221 39.6733 30.9389L43.4285 37.0838L48.8621 45.9784Z" fill="#D94452"/>
<path d="M48.8621 45.9785H7.13795C4.51954 45.9785 2.39667 48.1014 2.39667 50.7198V53.5648H53.6034V50.7198C53.6034 48.1014 51.4805 45.9785 48.8621 45.9785Z" fill="#EB5463"/>
<path d="M1.44832 50.7197H54.5517C54.8032 50.7198 55.0444 50.8197 55.2222 50.9975C55.4 51.1754 55.5 51.4165 55.5 51.668V54.5131C55.5 54.7646 55.4 55.0058 55.2222 55.1836C55.0444 55.3615 54.8032 55.4614 54.5517 55.4614H1.44832C1.1968 55.4614 0.955592 55.3615 0.77775 55.1836C0.599909 55.0057 0.5 54.7645 0.5 54.513L0.5 51.668C0.500028 51.4165 0.59995 51.1754 0.777788 50.9975C0.955626 50.8197 1.19682 50.7198 1.44832 50.7197Z" fill="#D94452"/>
<path d="M39.3792 38.3922C39.3792 39.4396 38.5302 40.2889 37.4829 40.2889C36.4351 40.2889 35.5862 39.4396 35.5862 38.3922C35.5862 37.3449 36.4351 36.4956 37.4829 36.4956C38.5302 36.4956 39.3792 37.3449 39.3792 38.3922Z" fill="#EB5463"/>
<path d="M30.845 8.04785L36.0696 11.3854C36.1801 11.4532 36.276 11.5423 36.3517 11.6474C36.4275 11.7526 36.4815 11.8718 36.5107 11.9981C36.5398 12.1243 36.5434 12.2551 36.5214 12.3827C36.4994 12.5104 36.4523 12.6324 36.3827 12.7417L36.1553 13.1022L33.3291 17.5873L30.6554 21.8166C30.5841 21.9272 30.4916 22.0226 30.3833 22.0973C30.275 22.172 30.1529 22.2245 30.0242 22.2518C29.8955 22.2791 29.7626 22.2807 29.6333 22.2564C29.504 22.2322 29.3808 22.1826 29.2707 22.1104L24.0648 18.7346L30.845 8.04785Z" fill="#D94452"/>
<path d="M32.9691 7.48424L29.7561 5.46836L32.1374 1.52726C32.6778 0.563044 33.8956 0.216393 34.8627 0.751462C35.7654 1.38966 35.9831 2.63725 35.35 3.54314L32.9691 7.48424Z" fill="#A9B0BB"/>
<path d="M23.5546 23.8835L18.1377 20.485C17.6518 20.2151 17.4738 19.6041 17.7395 19.1158L27.2091 4.20218C27.3645 3.98478 27.5998 3.83779 27.8634 3.79337C28.1269 3.74894 28.3974 3.81068 28.6155 3.9651L34.0274 7.36178C34.5141 7.63087 34.6921 8.24264 34.4256 8.73109L24.9653 23.6455C24.8884 23.7538 24.7909 23.8459 24.6784 23.9164C24.5658 23.987 24.4405 24.0347 24.3095 24.0568C24.1785 24.0789 24.0443 24.0749 23.9148 24.0452C23.7853 24.0155 23.6629 23.9605 23.5546 23.8835Z" fill="#CAD0D7"/>
<path d="M46.0171 27.7148C46.0506 31.0189 45.1535 34.2657 43.4284 37.084L41.8733 34.533C42.7435 32.3658 43.1847 30.0502 43.1725 27.7148C43.1725 21.0579 39.7774 15.4346 35.1121 13.6042C35.2166 13.5476 35.3206 13.4906 35.4251 13.4431L36.1552 13.1021C41.7214 14.0499 46.0171 20.233 46.0171 27.7148ZM53.6033 50.7198H50.7588C50.7638 48.5914 49.3476 46.7212 47.2974 46.1493H47.2881C46.8742 46.0347 46.4466 45.9773 46.0171 45.9785H48.8621C49.4853 45.9767 50.1027 46.0981 50.6788 46.3357C51.2549 46.5733 51.7783 46.9225 52.219 47.3632C52.6596 47.8038 53.0088 48.3272 53.2463 48.9033C53.4839 49.4793 53.6052 50.0967 53.6033 50.7198Z" fill="#D94452"/>
<path d="M55.5 51.668V54.513C55.4999 54.7645 55.4 55.0057 55.2222 55.1836C55.0443 55.3614 54.8032 55.4613 54.5517 55.4613H51.7071C52.2307 55.4613 52.655 55.0366 52.655 54.5129V51.668C52.655 51.1443 52.2307 50.7196 51.707 50.7196H54.5515C54.8031 50.7196 55.0443 50.8195 55.2221 50.9974C55.4 51.1752 55.4999 51.4164 55.5 51.668ZM48.8621 45.9784H46.0171L40.5835 37.0838L36.8283 30.9389C36.4252 30.2703 35.8397 29.7307 35.1406 29.3834C35.1783 29.2508 35.2069 29.1182 35.2354 28.9852C35.5012 28.9357 35.771 28.9104 36.0415 28.9097H36.0507C36.7768 28.9142 37.4899 29.1027 38.1234 29.4576C38.7569 29.8124 39.2901 30.3221 39.6733 30.9389L41.8733 34.5329L43.4284 37.0838L48.8621 45.9784Z" fill="#CC3E4F"/>
<path d="M22.4812 19.679C22.3013 19.6794 22.1252 19.628 21.9738 19.5308C21.8685 19.4642 21.7773 19.3775 21.7055 19.2756C21.6337 19.1738 21.5827 19.0587 21.5555 18.9371C21.5283 18.8155 21.5253 18.6897 21.5467 18.5669C21.5682 18.4441 21.6137 18.3268 21.6806 18.2217L28.0947 8.11175C28.2297 7.89941 28.4435 7.74937 28.6891 7.69462C28.9347 7.63987 29.192 7.68489 29.4044 7.81978C29.6167 7.95476 29.7668 8.16853 29.8216 8.4141C29.8763 8.65967 29.8313 8.91694 29.6965 9.12936L23.2822 19.2371C23.1968 19.3724 23.0786 19.4838 22.9385 19.5611C22.7985 19.6383 22.6411 19.679 22.4812 19.679Z" fill="white"/>
</g>
<defs>
<clipPath id="clip0_8063_16060">
<rect width="55" height="55" fill="white" transform="translate(0.5 0.5)"/>
</clipPath>
</defs>
</svg>
