<svg width="56" height="56" viewBox="0 0 56 56" fill="none" xmlns="http://www.w3.org/2000/svg">
<path fill-rule="evenodd" clip-rule="evenodd" d="M52.4967 44.018H47.3246C46.8485 44.018 46.4626 43.632 46.4626 43.156C46.4626 42.6799 46.8485 42.2939 47.3246 42.2939H52.4967C52.9727 42.2939 53.3587 42.6799 53.3587 43.156C53.3587 43.632 52.9727 44.018 52.4967 44.018Z" fill="#7F8C8D"/>
<path fill-rule="evenodd" clip-rule="evenodd" d="M10.7494 12.7786C12.6631 7.32376 19.5419 3.36885 27.6707 3.50333C35.4546 3.64125 41.9801 7.49272 44.023 12.6717L10.7494 12.7786Z" fill="#BDC3C7"/>
<path fill-rule="evenodd" clip-rule="evenodd" d="M43.0145 39.7075L51.2666 19.1149C51.5072 18.4898 51.364 17.7819 50.8994 17.2995C48.8185 15.1195 42.0663 9.53711 27.4983 9.53711C12.9303 9.53711 6.17819 15.1195 4.0973 17.2952C3.63263 17.7776 3.48944 18.4855 3.73008 19.1106L11.9821 39.7075H43.0145Z" fill="#ECF0F1"/>
<path fill-rule="evenodd" clip-rule="evenodd" d="M35.2564 20.7436V24.1916C35.2564 24.6677 34.8705 25.0536 34.3944 25.0536H30.0844V29.3637C30.0844 29.8397 29.6984 30.2257 29.2224 30.2257H25.7743C25.2982 30.2257 24.9123 29.8397 24.9123 29.3637V25.0536H20.6022C20.1262 25.0536 19.7402 24.6677 19.7402 24.1916V20.7436C19.7402 20.2675 20.1262 19.8815 20.6022 19.8815H24.9123V15.5715C24.9123 15.0954 25.2982 14.7095 25.7743 14.7095H29.2224C29.6984 14.7095 30.0844 15.0954 30.0844 15.5715V19.8815H34.3944C34.8705 19.8815 35.2564 20.2675 35.2564 20.7436Z" fill="#E64C3C"/>
<path d="M14.5682 32.812H12.8442C12.3681 32.812 11.9822 33.1979 11.9822 33.674V52.6383C11.9822 53.1144 12.3681 53.5003 12.8442 53.5003H14.5682C15.0443 53.5003 15.4302 53.1144 15.4302 52.6383V33.674C15.4302 33.1979 15.0443 32.812 14.5682 32.812Z" fill="#3B97D3"/>
<path d="M5.08603 36.2598H3.36201C2.88594 36.2598 2.5 36.6457 2.5 37.1218V49.1899C2.5 49.666 2.88594 50.052 3.36201 50.052H5.08603C5.56211 50.052 5.94805 49.666 5.94805 49.1899V37.1218C5.94805 36.6457 5.56211 36.2598 5.08603 36.2598Z" fill="#3B97D3"/>
<path fill-rule="evenodd" clip-rule="evenodd" d="M5.948 39.708H11.9821V46.6041H5.948V39.708Z" fill="#2980BA"/>
<path fill-rule="evenodd" clip-rule="evenodd" d="M43.0145 39.7078V46.6039C43.0145 48.5082 41.4708 50.052 39.5665 50.052H15.4302V36.2598H39.5665C41.4708 36.2598 43.0145 37.8035 43.0145 39.7078Z" fill="#B0D3F0"/>
<path fill-rule="evenodd" clip-rule="evenodd" d="M43.0146 39.708H45.6006C46.5528 39.708 47.3246 40.4799 47.3246 41.432V44.8801C47.3246 45.8322 46.5528 46.6041 45.6006 46.6041H43.0146V39.708Z" fill="#95A5A5"/>
<path fill-rule="evenodd" clip-rule="evenodd" d="M19.7403 36.2598V40.5698C19.7403 41.0459 19.3543 41.4318 18.8782 41.4318C18.4022 41.4318 18.0162 41.0459 18.0162 40.5698V36.2598H19.7403Z" fill="#3B97D3"/>
<path fill-rule="evenodd" clip-rule="evenodd" d="M23.1883 36.2598V38.8458C23.1883 39.3219 22.8023 39.7078 22.3262 39.7078C21.8502 39.7078 21.4642 39.3219 21.4642 38.8458V36.2598H23.1883Z" fill="#3B97D3"/>
<path fill-rule="evenodd" clip-rule="evenodd" d="M26.6363 36.2598V40.5698C26.6363 41.0459 26.2504 41.4318 25.7743 41.4318C25.2982 41.4318 24.9123 41.0459 24.9123 40.5698V36.2598H26.6363Z" fill="#3B97D3"/>
<path fill-rule="evenodd" clip-rule="evenodd" d="M30.0843 36.2598V38.8458C30.0843 39.3219 29.6984 39.7078 29.2223 39.7078C28.7462 39.7078 28.3603 39.3219 28.3603 38.8458V36.2598H30.0843Z" fill="#3B97D3"/>
<path fill-rule="evenodd" clip-rule="evenodd" d="M33.5324 36.2598V40.5698C33.5324 41.0459 33.1465 41.4318 32.6704 41.4318C32.1943 41.4318 31.8084 41.0459 31.8084 40.5698V36.2598H33.5324Z" fill="#3B97D3"/>
<path fill-rule="evenodd" clip-rule="evenodd" d="M36.9804 36.2598V38.8458C36.9804 39.3219 36.5945 39.7078 36.1184 39.7078C35.6423 39.7078 35.2564 39.3219 35.2564 38.8458V36.2598H36.9804Z" fill="#3B97D3"/>
</svg>
