<svg width="56" height="56" viewBox="0 0 56 56" fill="none" xmlns="http://www.w3.org/2000/svg">
<path d="M47.7656 25.4219H8.23438C7.75976 25.4219 7.375 25.8066 7.375 26.2812V52.0625C7.375 52.5371 7.75976 52.9219 8.23438 52.9219H47.7656C48.2402 52.9219 48.625 52.5371 48.625 52.0625V26.2812C48.625 25.8066 48.2402 25.4219 47.7656 25.4219Z" fill="url(#paint0_linear_8358_2744)"/>
<path d="M16.8281 11.672H8.23438C8.03212 11.6683 7.83504 11.7361 7.67784 11.8635C7.52065 11.9908 7.41341 12.1695 7.375 12.3681L4.79688 25.8087C4.7931 25.8631 4.7931 25.9177 4.79688 25.972C4.79688 27.4216 5.37272 28.8118 6.39772 29.8368C7.42273 30.8618 8.81293 31.4376 10.2625 31.4376H12.2219C13.6715 31.4376 15.0617 30.8618 16.0867 29.8368C17.1117 28.8118 17.6875 27.4216 17.6875 25.972V12.5314C17.6875 12.3035 17.597 12.0849 17.4358 11.9237C17.2746 11.7626 17.056 11.672 16.8281 11.672Z" fill="url(#paint1_linear_8358_2744)"/>
<path d="M28 20.2656H16.8281C16.6002 20.2656 16.3816 20.3562 16.2205 20.5173C16.0593 20.6785 15.9688 20.8971 15.9688 21.125V25.9719C15.9688 27.4214 16.5446 28.8117 17.5696 29.8367C18.5946 30.8617 19.9848 31.4375 21.4344 31.4375H23.3937C24.8433 31.4375 26.2335 30.8617 27.2585 29.8367C28.2835 28.8117 28.8594 27.4214 28.8594 25.9719V21.125C28.8594 20.8971 28.7688 20.6785 28.6077 20.5173C28.4465 20.3562 28.2279 20.2656 28 20.2656Z" fill="url(#paint2_linear_8358_2744)"/>
<path d="M39.1719 20.2656H28C27.7721 20.2656 27.5535 20.3562 27.3923 20.5173C27.2312 20.6785 27.1406 20.8971 27.1406 21.125V25.9719C27.1406 27.4214 27.7165 28.8117 28.7415 29.8367C29.7665 30.8617 31.1567 31.4375 32.6063 31.4375H34.5656C36.0152 31.4375 37.4054 30.8617 38.4304 29.8367C39.4554 28.8117 40.0312 27.4214 40.0312 25.9719V21.125C40.0312 20.8971 39.9407 20.6785 39.7795 20.5173C39.6184 20.3562 39.3998 20.2656 39.1719 20.2656Z" fill="url(#paint3_linear_8358_2744)"/>
<path d="M51.2031 25.8087L48.625 12.3681C48.5866 12.1695 48.4794 11.9908 48.3222 11.8635C48.165 11.7361 47.9679 11.6683 47.7656 11.672H39.1719C38.944 11.672 38.7254 11.7626 38.5642 11.9237C38.403 12.0849 38.3125 12.3035 38.3125 12.5314V25.972C38.3125 27.4216 38.8883 28.8118 39.9133 29.8368C40.9383 30.8618 42.3286 31.4376 43.7781 31.4376H45.7375C47.1871 31.4376 48.5773 30.8618 49.6023 29.8368C50.6273 28.8118 51.2031 27.4216 51.2031 25.972C51.2069 25.9177 51.2069 25.8631 51.2031 25.8087Z" fill="url(#paint4_linear_8358_2744)"/>
<path d="M39.1719 3.07812H16.8281C16.3535 3.07812 15.9688 3.46288 15.9688 3.9375V21.125C15.9688 21.5996 16.3535 21.9844 16.8281 21.9844H39.1719C39.6465 21.9844 40.0312 21.5996 40.0312 21.125V3.9375C40.0312 3.46288 39.6465 3.07812 39.1719 3.07812Z" fill="url(#paint5_linear_8358_2744)"/>
<path d="M33.1562 9.95312H30.5781V7.375C30.5781 7.14708 30.4876 6.92849 30.3264 6.76733C30.1653 6.60617 29.9467 6.51562 29.7188 6.51562H26.2812C26.0533 6.51562 25.8347 6.60617 25.6736 6.76733C25.5124 6.92849 25.4219 7.14708 25.4219 7.375V9.95312H22.8438C22.6158 9.95312 22.3972 10.0437 22.2361 10.2048C22.0749 10.366 21.9844 10.5846 21.9844 10.8125V14.25C21.9844 14.4779 22.0749 14.6965 22.2361 14.8577C22.3972 15.0188 22.6158 15.1094 22.8438 15.1094H25.4219V17.6875C25.4219 17.9154 25.5124 18.134 25.6736 18.2952C25.8347 18.4563 26.0533 18.5469 26.2812 18.5469H29.7188C29.9467 18.5469 30.1653 18.4563 30.3264 18.2952C30.4876 18.134 30.5781 17.9154 30.5781 17.6875V15.1094H33.1562C33.3842 15.1094 33.6028 15.0188 33.7639 14.8577C33.9251 14.6965 34.0156 14.4779 34.0156 14.25V10.8125C34.0156 10.5846 33.9251 10.366 33.7639 10.2048C33.6028 10.0437 33.3842 9.95312 33.1562 9.95312Z" fill="url(#paint6_linear_8358_2744)"/>
<path d="M24.5625 34.0156H13.3906C12.916 34.0156 12.5312 34.4004 12.5312 34.875V52.0625C12.5312 52.5371 12.916 52.9219 13.3906 52.9219H24.5625C25.0371 52.9219 25.4219 52.5371 25.4219 52.0625V34.875C25.4219 34.4004 25.0371 34.0156 24.5625 34.0156Z" fill="url(#paint7_linear_8358_2744)"/>
<path d="M41.75 34.0156H29.7188C29.2441 34.0156 28.8594 34.4004 28.8594 34.875V44.3281C28.8594 44.8027 29.2441 45.1875 29.7188 45.1875H41.75C42.2246 45.1875 42.6094 44.8027 42.6094 44.3281V34.875C42.6094 34.4004 42.2246 34.0156 41.75 34.0156Z" fill="url(#paint8_linear_8358_2744)"/>
<defs>
<linearGradient id="paint0_linear_8358_2744" x1="28" y1="25.4219" x2="28" y2="52.9219" gradientUnits="userSpaceOnUse">
<stop stop-color="#E8E8E8"/>
<stop offset="1" stop-color="#D2D2D2"/>
</linearGradient>
<linearGradient id="paint1_linear_8358_2744" x1="11.2422" y1="11.672" x2="11.2422" y2="31.4376" gradientUnits="userSpaceOnUse">
<stop stop-color="#42BFFF"/>
<stop offset="1" stop-color="#1174AC"/>
</linearGradient>
<linearGradient id="paint2_linear_8358_2744" x1="22.4141" y1="20.2656" x2="22.4141" y2="31.4375" gradientUnits="userSpaceOnUse">
<stop stop-color="#004C7B"/>
<stop offset="1" stop-color="#005E96"/>
</linearGradient>
<linearGradient id="paint3_linear_8358_2744" x1="33.5859" y1="20.2656" x2="33.5859" y2="0.499999" gradientUnits="userSpaceOnUse">
<stop stop-color="#42BFFF"/>
<stop offset="1" stop-color="#1174AC"/>
</linearGradient>
<linearGradient id="paint4_linear_8358_2744" x1="44.7578" y1="11.672" x2="44.7578" y2="0.500142" gradientUnits="userSpaceOnUse">
<stop stop-color="#004C7B"/>
<stop offset="1" stop-color="#005E96"/>
</linearGradient>
<linearGradient id="paint5_linear_8358_2744" x1="15.9688" y1="12.5313" x2="40.0312" y2="12.5313" gradientUnits="userSpaceOnUse">
<stop stop-color="#E8E8E8"/>
<stop offset="1" stop-color="#D2D2D2"/>
</linearGradient>
<linearGradient id="paint6_linear_8358_2744" x1="21.9844" y1="12.5312" x2="34.0156" y2="12.5312" gradientUnits="userSpaceOnUse">
<stop stop-color="#CF1D37"/>
<stop offset="1" stop-color="#CF0018"/>
</linearGradient>
<linearGradient id="paint7_linear_8358_2744" x1="12.5312" y1="43.4687" x2="25.4219" y2="43.4687" gradientUnits="userSpaceOnUse">
<stop stop-color="#004C7B"/>
<stop offset="1" stop-color="#005E96"/>
</linearGradient>
<linearGradient id="paint8_linear_8358_2744" x1="28.8594" y1="39.6016" x2="42.6094" y2="39.6016" gradientUnits="userSpaceOnUse">
<stop stop-color="#004C7B"/>
<stop offset="1" stop-color="#005E96"/>
</linearGradient>
</defs>
</svg>
