<svg width="56" height="56" viewBox="0 0 56 56" fill="none" xmlns="http://www.w3.org/2000/svg">
<path d="M28.2288 53.5C32.9053 53.5 36.6963 49.7089 36.6963 45.0325C36.6963 40.356 32.9053 36.5649 28.2288 36.5649C23.5523 36.5649 19.7613 40.356 19.7613 45.0325C19.7613 49.7089 23.5523 53.5 28.2288 53.5Z" fill="#4FBA6F"/>
<path fill-rule="evenodd" clip-rule="evenodd" d="M21.6257 12.4255H34.8601C35.0232 12.425 35.1795 12.36 35.2949 12.2447C35.4102 12.1293 35.4752 11.973 35.4756 11.8099V7.25491C35.4752 7.09179 35.4102 6.93549 35.2949 6.82014C35.1795 6.7048 35.0232 6.63977 34.8601 6.63928H31.8747V6.11605C31.8727 5.42284 31.5964 4.7586 31.1062 4.26843C30.616 3.77827 29.9518 3.50201 29.2585 3.5H27.2273C26.5341 3.50201 25.8698 3.77827 25.3796 4.26843C24.8895 4.7586 24.6132 5.42284 24.6111 6.11605V6.63928H21.6257C21.4626 6.63977 21.3063 6.7048 21.191 6.82014C21.0757 6.93549 21.0107 7.09179 21.0102 7.25491V11.8099C21.0107 11.973 21.0757 12.1293 21.191 12.2447C21.3063 12.36 21.4626 12.425 21.6257 12.4255Z" fill="#1A5E83"/>
<path fill-rule="evenodd" clip-rule="evenodd" d="M35.4757 7.9624V10.9271H39.8159C40.4005 10.9288 40.9606 11.1618 41.374 11.5751C41.7873 11.9885 42.0203 12.5486 42.022 13.1331V42.187C42.0202 42.7715 41.7873 43.3316 41.3739 43.745C40.9606 44.1583 40.4005 44.3913 39.8159 44.393H36.6724C36.7476 45.3911 36.6461 46.3947 36.3725 47.3575H41.5392C42.4526 47.3548 43.3278 46.9908 43.9737 46.3449C44.6196 45.6991 44.9836 44.8238 44.9863 43.9104V11.4095C44.9836 10.496 44.6195 9.62075 43.9736 8.97487C43.3276 8.32898 42.4523 7.96499 41.5389 7.9624H35.4757Z" fill="#6C757D"/>
<path fill-rule="evenodd" clip-rule="evenodd" d="M21.0102 10.9271V7.9624H14.9471C14.0337 7.96507 13.1585 8.3291 12.5126 8.97498C11.8667 9.62086 11.5027 10.4961 11.5 11.4095V43.9104C11.5027 44.8238 11.8667 45.6991 12.5126 46.3449C13.1585 46.9908 14.0337 47.3548 14.9471 47.3575H20.0851C19.8115 46.3946 19.71 45.391 19.7851 44.3928H16.6705C16.086 44.3911 15.5259 44.1581 15.1125 43.7448C14.6992 43.3314 14.4662 42.7713 14.4645 42.1868V13.1329C14.4662 12.5484 14.6992 11.9883 15.1126 11.575C15.5259 11.1617 16.086 10.9288 16.6705 10.9271H21.0102Z" fill="#6C757D"/>
<path fill-rule="evenodd" clip-rule="evenodd" d="M21.0102 10.9272H16.6705C16.086 10.9289 15.5258 11.1619 15.1125 11.5753C14.6992 11.9886 14.4662 12.5487 14.4645 13.1333V42.1871C14.4662 42.7717 14.6992 43.3318 15.1125 43.7451C15.5259 44.1585 16.086 44.3914 16.6705 44.3932H19.7851C19.9465 42.2642 20.9061 40.2749 22.4718 38.8233C24.0375 37.3718 26.0937 36.5653 28.2287 36.5653C30.3638 36.5653 32.42 37.3718 33.9857 38.8233C35.5514 40.2749 36.511 42.2642 36.6723 44.3932H39.8159C40.4004 44.3914 40.9606 44.1585 41.3739 43.7451C41.7872 43.3318 42.0202 42.7717 42.0219 42.1871V13.1331C42.0202 12.5486 41.7872 11.9885 41.3739 11.5752C40.9605 11.1619 40.4004 10.9289 39.8159 10.9272H35.4757V11.8103C35.4752 11.9734 35.4102 12.1297 35.2949 12.245C35.1796 12.3604 35.0233 12.4254 34.8602 12.4259H21.6257C21.4626 12.4254 21.3063 12.3604 21.191 12.245C21.0757 12.1297 21.0107 11.9734 21.0102 11.8103V10.9272Z" fill="#ECEFF1"/>
<path fill-rule="evenodd" clip-rule="evenodd" d="M18.7176 35.4505C18.5242 35.4505 18.3387 35.3737 18.202 35.237C18.0652 35.1002 17.9884 34.9147 17.9884 34.7214C17.9884 34.528 18.0652 34.3425 18.202 34.2058C18.3387 34.069 18.5242 33.9922 18.7176 33.9922H37.7682C37.9616 33.9922 38.1471 34.069 38.2838 34.2058C38.4206 34.3425 38.4974 34.528 38.4974 34.7214C38.4974 34.9147 38.4206 35.1002 38.2838 35.237C38.1471 35.3737 37.9616 35.4505 37.7682 35.4505H18.7176Z" fill="#D1D1D6"/>
<path fill-rule="evenodd" clip-rule="evenodd" d="M18.7176 26.3382C18.5242 26.3382 18.3387 26.2614 18.202 26.1247C18.0652 25.9879 17.9884 25.8024 17.9884 25.6091C17.9884 25.4157 18.0652 25.2302 18.202 25.0935C18.3387 24.9567 18.5242 24.8799 18.7176 24.8799H37.7682C37.9616 24.8799 38.1471 24.9567 38.2838 25.0935C38.4206 25.2302 38.4974 25.4157 38.4974 25.6091C38.4974 25.8024 38.4206 25.9879 38.2838 26.1247C38.1471 26.2614 37.9616 26.3382 37.7682 26.3382H18.7176Z" fill="#D1D1D6"/>
<path fill-rule="evenodd" clip-rule="evenodd" d="M18.7176 30.8607C18.5242 30.8607 18.3387 30.7839 18.202 30.6471C18.0652 30.5104 17.9884 30.3249 17.9884 30.1315C17.9884 29.9381 18.0652 29.7527 18.202 29.6159C18.3387 29.4792 18.5242 29.4023 18.7176 29.4023H37.7682C37.9616 29.4023 38.1471 29.4792 38.2838 29.6159C38.4206 29.7527 38.4974 29.9381 38.4974 30.1315C38.4974 30.3249 38.4206 30.5104 38.2838 30.6471C38.1471 30.7839 37.9616 30.8607 37.7682 30.8607H18.7176Z" fill="#D1D1D6"/>
<path fill-rule="evenodd" clip-rule="evenodd" d="M18.7176 17.2259C18.5242 17.2259 18.3387 17.1491 18.202 17.0123C18.0652 16.8756 17.9884 16.6901 17.9884 16.4967C17.9884 16.3034 18.0652 16.1179 18.202 15.9811C18.3387 15.8444 18.5242 15.7676 18.7176 15.7676H37.7682C37.9616 15.7676 38.1471 15.8444 38.2838 15.9811C38.4206 16.1179 38.4974 16.3034 38.4974 16.4967C38.4974 16.6901 38.4206 16.8756 38.2838 17.0123C38.1471 17.1491 37.9616 17.2259 37.7682 17.2259H18.7176Z" fill="#D1D1D6"/>
<path fill-rule="evenodd" clip-rule="evenodd" d="M18.7176 21.7489C18.5242 21.7489 18.3387 21.672 18.202 21.5353C18.0652 21.3986 17.9884 21.2131 17.9884 21.0197C17.9884 20.8263 18.0652 20.6408 18.202 20.5041C18.3387 20.3674 18.5242 20.2905 18.7176 20.2905H37.7682C37.9616 20.2905 38.1471 20.3674 38.2838 20.5041C38.4206 20.6408 38.4974 20.8263 38.4974 21.0197C38.4974 21.2131 38.4206 21.3986 38.2838 21.5353C38.1471 21.672 37.9616 21.7489 37.7682 21.7489H18.7176Z" fill="#D1D1D6"/>
<path fill-rule="evenodd" clip-rule="evenodd" d="M24.2618 45.4249C24.125 45.2881 24.0482 45.1026 24.0482 44.9093C24.0482 44.7159 24.125 44.5304 24.2618 44.3936C24.3986 44.2569 24.584 44.18 24.7774 44.18C24.9708 44.18 25.1563 44.2569 25.2931 44.3936L27.0639 46.1645L31.1935 42.0349C31.3302 41.8981 31.5157 41.8213 31.7091 41.8213C31.9025 41.8213 32.088 41.8981 32.2247 42.0349C32.3615 42.1716 32.4383 42.3571 32.4383 42.5505C32.4383 42.7439 32.3615 42.9294 32.2247 43.0661L27.5796 47.7112C27.5119 47.779 27.4315 47.8327 27.3431 47.8693C27.2546 47.906 27.1598 47.9248 27.064 47.9248C26.9682 47.9248 26.8734 47.906 26.7849 47.8693C26.6965 47.8327 26.6161 47.779 26.5484 47.7112L24.2618 45.4249Z" fill="#ECEFF1"/>
</svg>
